<?xml version="1.0" standalone="no"?>
<!DOCTYPE svg PUBLIC "-//W3C//DTD SVG 20010904//EN"
 "http://www.w3.org/TR/2001/REC-SVG-20010904/DTD/svg10.dtd">
<svg version="1.0" xmlns="http://www.w3.org/2000/svg"
 width="700.000000pt" height="700.000000pt" viewBox="0 0 700.000000 700.000000"
 preserveAspectRatio="xMidYMid meet">
<metadata>
Created by potrace 1.14, written by Peter Selinger 2001-2017
</metadata>
<g transform="translate(0.000000,700.000000) scale(0.100000,-0.100000)"
fill="#000000" stroke="none">
<path d="M3298 6996 c-1 -2 -41 -6 -88 -10 -47 -3 -94 -8 -105 -10 -11 -2 -47
-7 -80 -11 -33 -4 -103 -16 -155 -27 -52 -10 -106 -21 -120 -24 -70 -13 -393
-112 -455 -139 -16 -8 -70 -30 -119 -50 -151 -62 -339 -160 -524 -275 -63 -39
-267 -184 -288 -204 -6 -6 -29 -24 -50 -41 -174 -135 -452 -418 -569 -579 -16
-23 -32 -43 -35 -46 -27 -24 -178 -252 -254 -384 -155 -268 -307 -648 -362
-901 -2 -11 -6 -29 -8 -40 -25 -112 -36 -172 -46 -240 -6 -44 -13 -93 -15
-110 -28 -182 -27 -626 0 -822 10 -67 14 -99 20 -148 4 -27 10 -66 15 -85 5
-19 12 -48 14 -65 28 -156 114 -435 189 -615 207 -497 527 -944 932 -1301 28
-24 52 -47 55 -50 32 -36 370 -275 470 -332 316 -180 612 -303 895 -373 237
-58 403 -87 595 -102 180 -14 591 -7 711 13 13 2 43 6 66 9 22 3 52 7 65 10
12 3 39 8 58 10 54 8 139 25 184 37 23 6 49 13 58 14 42 8 182 51 285 86 332
115 629 269 918 477 50 36 95 70 100 76 6 6 28 24 49 40 126 95 346 311 482
476 394 475 650 1023 758 1620 14 81 17 101 32 215 3 27 8 61 10 75 9 49 11
526 4 605 -16 169 -22 220 -25 225 -2 3 -6 30 -10 60 -7 55 -58 298 -75 355
-138 467 -305 809 -568 1165 -47 63 -88 117 -91 120 -3 3 -39 44 -80 93 l-73
87 -2 83 c-3 104 -28 193 -80 281 -67 112 -65 111 -634 464 -193 119 -236 141
-313 161 -116 29 -233 20 -347 -26 -71 -28 -61 -29 -228 20 -115 34 -327 82
-403 92 -20 3 -47 7 -61 10 -13 2 -52 7 -86 11 -33 3 -74 8 -90 10 -33 5 -520
14 -526 10z"/>
</g>
</svg>
