<?xml version="1.0" encoding="UTF-8" standalone="no"?>
<svg class="icon" style="width: 1em; height: 1em;vertical-align: middle;fill: currentColor;overflow: hidden;" viewBox="0 0 1024 1024" version="1.1" xmlns="http://www.w3.org/2000/svg" p-id="2632"><path d="M511.99992 511.99992m-511.99992 0a511.99992 511.99992 0 1 0 1023.99984 0 511.99992 511.99992 0 1 0-1023.99984 0Z" fill="#2D4452" p-id="2633"></path><path d="M924.839855 814.719873a101.759984 101.759984 0 0 0-6.727998-16.295998 104.199984 104.199984 0 0 0-8.135999-20.447997 103.999984 103.999984 0 0 0-8.135999-20.447996c-2.224-7.887999-5.279999-15.439998-9.191998-22.463997a106.583983 106.583983 0 0 0-6.279999-14.599998 104.623984 104.623984 0 0 0-8.135999-20.439996 104.063984 104.063984 0 0 0-8.159999-20.479997 104.295984 104.295984 0 0 0-8.127999-20.439997 103.687984 103.687984 0 0 0-8.135998-20.423997 104.103984 104.103984 0 0 0-8.127999-20.439997 104.015984 104.015984 0 0 0-8.143999-20.479996 104.223984 104.223984 0 0 0-8.143999-20.447997 104.367984 104.367984 0 0 0-9.175998-22.479997 105.999983 105.999983 0 0 0-6.287999-14.583997 104.071984 104.071984 0 0 0-8.143999-20.463997 104.719984 104.719984 0 0 0-8.143999-20.447997 104.359984 104.359984 0 0 0-8.119998-20.415997 103.807984 103.807984 0 0 0-8.167999-20.503997 104.455984 104.455984 0 0 0-8.127999-20.423996 103.295984 103.295984 0 0 0-8.135999-20.423997 104.015984 104.015984 0 0 0-8.143998-20.479997 104.031984 104.031984 0 0 0-9.191999-22.503997 105.639983 105.639983 0 0 0-6.271999-14.527997 104.031984 104.031984 0 0 0-8.127999-20.431997 104.351984 104.351984 0 0 0-8.143998-20.495997 103.263984 103.263984 0 0 0-8.151999-20.447997 104.047984 104.047984 0 0 0-10.735998-24.991996c-15.959998-37.855994-53.423992-64.44799-97.095985-64.44799-0.976 0-1.92 0.12-2.888 0.152-17.671997-33.383995-52.711992-56.151991-93.111985-56.151991-2.68 0-5.319999 0.136-7.951999 0.32-0.168 0.016-0.328-1.248-0.504-1.232-2.504 0.184-5.007999-0.424-7.479999-0.424h-0.024c-31.359995 0-58.135991 22.999996-73.983988 49.047993-8.159999-3.975999-16.935997-1.048-26.087996-9.047999h-0.064c-3.144 0-6.287999 0.56-9.511999 0.232-3.415999-0.392-6.871999 0.248-10.399998 0.248-2.832 0-5.599999 0.544-8.367999 0.784-46.967993 3.703999-85.279987 38.415994-94.719985 83.527987a77.647988 77.647988 0 0 0-30.575995 61.76799c0 4.623999 0.544 9.103999 1.32 13.503998 1.184 12.159998 4.863999 23.367996 10.935998 33.127995 0.52 1.624 1.064 3.223999 1.696 4.807999 1.472 4.167999 3.263999 8.167999 5.327999 11.999998a78.399988 78.399988 0 0 0 2.935999 8.807999c1.424 3.975999 3.128 7.823999 5.088 11.503998 0.832 3.2 1.88 6.311999 3.127999 9.327999 1.456 4.039999 3.168 7.919999 5.167999 11.639998 0.208 0.832 0.48 1.64 0.728 2.463999v170.607974a39.999994 39.999994 0 0 0-39.999993 39.999993c0 3.375999 0.552 6.591999 1.343999 9.727999 0.184 1.352 0.496 2.664 0.832 3.967999 0.952 6.559999 3.583999 12.559998 7.431999 17.703998 0.168 0.952 0.488 1.84 0.72 2.775999 0.952 6.543999 3.583999 12.535998 7.415999 17.671997 0.168 0.96 0.496 1.864 0.728 2.816 0.96 6.519999 3.583999 12.503998 7.423998 17.647997 0.168 0.968 0.488 1.872 0.728 2.832 0.96 6.511999 3.575999 12.495998 7.407999 17.599997 0.168 0.992 0.496 1.928 0.736 2.888 0.96 6.503999 3.591999 12.455998 7.407999 17.551997 1.088 6.159999 3.703999 11.759998 7.319999 16.607997 0.168 0.928 0.488 1.816 0.704 2.712 0.96 6.575999 3.591999 12.591998 7.447999 17.751997 0.168 0.944 0.48 1.832 0.719999 2.776 0.952 6.535999 3.583999 12.527998 7.407999 17.663997 0.168 0.976 0.504 1.888 0.736 2.831999 0.96 6.519999 3.591999 12.495998 7.415999 17.607998 0.168 0.968 0.488 1.88 0.728 2.831999a38.799994 38.799994 0 0 0 7.415999 17.615997c0.168 0.976 0.496 1.88 0.728 2.832 0.952 6.511999 3.583999 12.495998 7.415998 17.607997 0.168 0.984 0.496 1.904 0.736 2.864a38.399994 38.399994 0 0 0 7.415999 17.575997c0.168 0.984 0.48 1.92 0.728 2.88 0.952 6.503999 3.583999 12.447998 7.415999 17.559997 0.168 1 0.488 1.944 0.736 2.911999 0.952 6.487999 3.575999 12.423998 7.407999 17.519998 1.08 6.143999 3.695999 11.743998 7.319998 16.599997 0.168 0.968 0.488 1.872 0.728 2.832 0.96 6.519999 3.583999 12.503998 7.415999 17.615997 0.168 0.968 0.488 1.872 0.72 2.823999 0.88 6.031999 3.239999 11.543998 6.599999 16.415998A508.415921 508.415921 0 0 0 511.99992 1023.99984c169.487974 0 319.66395-82.407987 412.839935-209.279967z" fill="#233540" p-id="2634"></path><path d="M671.999895 815.999873c0 17.599997-14.399998 31.999995-31.999995 31.999995H351.999945c-17.599997 0-31.999995-14.399998-31.999995-31.999995V391.999939c0-17.599997 14.399998-31.999995 31.999995-31.999995h287.999955c17.599997 0 31.999995 14.399998 31.999995 31.999995v423.999934z" fill="#FFD464" p-id="2635"></path><path d="M735.999885 679.999894H639.9999V447.99993h95.999985c26.471996 0 47.999993 21.527997 47.999993 47.999993v135.999978c0 26.471996-21.527997 47.999993-47.999993 47.999993z m-63.99999-31.999995h63.99999c8.823999 0 15.999998-7.175999 15.999998-15.999998V495.999923c0-8.823999-7.175999-15.999998-15.999998-15.999998h-63.99999v167.999974z" fill="#FFD464" p-id="2636"></path><path d="M655.999898 479.999925h15.999997v167.999974h-15.999997zM735.999885 447.99993h-15.999997c26.471996 0 47.999993 21.527997 47.999992 47.999993v135.999978c0 26.471996-21.527997 47.999993-47.999992 47.999993h15.999997c26.471996 0 47.999993-21.527997 47.999993-47.999993V495.999923c0-26.471996-21.527997-47.999993-47.999993-47.999993z" fill="#F2C95F" p-id="2637"></path><path d="M639.9999 359.999944h-23.999996c17.599997 0 31.999995 14.399998 31.999995 31.999995v423.999934c0 17.599997-14.399998 31.999995-31.999995 31.999995h23.999996c17.599997 0 31.999995-14.399998 31.999995-31.999995V391.999939c0-17.599997-14.399998-31.999995-31.999995-31.999995z" fill="#F2C95F" p-id="2638"></path><path d="M367.999943 703.99989a15.999998 15.999998 0 0 1-15.999998-15.999997V471.999926a15.999998 15.999998 0 0 1 31.999995 0v215.999967a15.999998 15.999998 0 0 1-15.999997 15.999997zM431.999933 703.99989a15.999998 15.999998 0 0 1-15.999998-15.999997V471.999926a15.999998 15.999998 0 0 1 31.999995 0v215.999967a15.999998 15.999998 0 0 1-15.999997 15.999997zM623.999903 703.99989a15.999998 15.999998 0 0 1-15.999998-15.999997V471.999926a15.999998 15.999998 0 0 1 31.999995 0v215.999967a15.999998 15.999998 0 0 1-15.999997 15.999997zM495.999923 703.99989a15.999998 15.999998 0 0 1-15.999998-15.999997V471.999926a15.999998 15.999998 0 0 1 31.999995 0v215.999967a15.999998 15.999998 0 0 1-15.999997 15.999997zM559.999913 703.99989a15.999998 15.999998 0 0 1-15.999998-15.999997V471.999926a15.999998 15.999998 0 0 1 31.999995 0v215.999967a15.999998 15.999998 0 0 1-15.999997 15.999997z" fill="#CC803D" p-id="2639"></path><path d="M319.99995 383.99994h-39.999994v232.327964c-22.095997 0-39.999994 17.903997-39.999993 39.999993s17.903997 39.999994 39.999993 39.999994 39.999994-17.903997 39.999994-39.999994c0-0.112-0.032-0.216-0.032-0.327999H319.99995V383.99994z" fill="#F5F5F5" p-id="2640"></path><path d="M319.99995 383.99994h-15.999997v271.999958h-0.032c0 0.112 0.032 0.216 0.032 0.327999a39.999994 39.999994 0 0 1-31.999995 39.191994 39.999994 39.999994 0 0 0 47.999992-39.191994c0-0.112-0.032-0.216-0.032-0.327999H319.99995V383.99994z" fill="#E6E6E6" p-id="2641"></path><path d="M609.335905 209.335967c-0.976 0-1.92 0.12-2.888 0.152-17.671997-33.375995-52.711992-56.151991-93.111985-56.151991-38.151994 0-71.455989 20.351997-89.935986 50.719992a104.631984 104.631984 0 0 0-46.063993-10.719998c-50.743992 0-93.095985 35.895994-103.087984 83.671987-18.551997 14.191998-30.575995 36.503994-30.575995 61.66399 0 42.887993 34.775995 77.663988 77.663988 77.663988a77.199988 77.199988 0 0 0 43.263993-13.167998 106.079983 106.079983 0 0 0 12.735998 0.832c4.143999 0 8.199999-0.296 12.215998-0.776a104.815984 104.815984 0 0 0 67.78399 24.775996c31.951995 0 60.511991-14.279998 79.831987-36.743994a104.815984 104.815984 0 0 0 72.167989 28.743995c58.167991 0 105.335984-47.167993 105.335983-105.335983s-47.167993-105.327984-105.335983-105.327984z" fill="#F5F5F5" p-id="2642"></path><path d="M609.335905 209.335967c-0.976 0-1.92 0.12-2.888 0.152-17.671997-33.375995-52.711992-56.151991-93.111985-56.151991-5.431999 0-10.751998 0.464-15.951998 1.248a105.391984 105.391984 0 0 1 77.063988 54.895991c0.968-0.032 1.912-0.16 2.888-0.16 58.167991 0 105.335984 47.167993 105.335983 105.335984 0 52.719992-38.783994 96.271985-89.343986 103.991984 5.223999 0.816 10.543998 1.344 16.007998 1.343999 58.167991 0 105.335984-47.167993 105.335983-105.335983s-47.167993-105.319984-105.335983-105.319984zM391.399939 204.055968c1.832-2.984 3.831999-5.831999 5.911999-8.615999a102.911984 102.911984 0 0 0-19.975997-2.103999c-5.551999 0-10.991998 0.504-16.319997 1.336 10.727998 1.64 20.959997 4.783999 30.383995 9.383998zM519.359919 377.751941c-16.063997 18.671997-52.743992 45.063993-78.215988 48.927992 5.287999 0.824 10.679998 1.328 16.191998 1.328 32.663995 0 63.91199-16.135997 79.911987-36.759994a107.247983 107.247983 0 0 1-17.887997-13.495998z" fill="#E6E6E6" p-id="2643"></path></svg>